<svg width="88" height="88" viewBox="0 0 88 88" fill="none" xmlns="http://www.w3.org/2000/svg">
<path d="M77.1563 0H31.25C30.4212 0 29.6263 0.32924 29.0403 0.915291C28.4542 1.50134 28.125 2.2962 28.125 3.125C28.125 3.9538 28.4542 4.74866 29.0403 5.33471C29.6263 5.92076 30.4212 6.25 31.25 6.25H77.1563C78.242 6.25 79.2832 6.6813 80.051 7.44903C80.8187 8.21676 81.25 9.25802 81.25 10.3437V18.75H6.25V10.3437C6.25 9.25802 6.6813 8.21676 7.44903 7.44903C8.21676 6.6813 9.25802 6.25 10.3437 6.25H18.75C19.5788 6.25 20.3737 5.92076 20.9597 5.33471C21.5458 4.74866 21.875 3.9538 21.875 3.125C21.875 2.2962 21.5458 1.50134 20.9597 0.915291C20.3737 0.32924 19.5788 0 18.75 0H10.3437C7.60042 0 4.96944 1.08978 3.02961 3.02961C1.08978 4.96944 0 7.60042 0 10.3437V77.1563C0 79.8996 1.08978 82.5306 3.02961 84.4704C4.96944 86.4102 7.60042 87.5 10.3437 87.5H77.1563C79.8996 87.5 82.5306 86.4102 84.4704 84.4704C86.4102 82.5306 87.5 79.8996 87.5 77.1563V71.875C87.5 71.0462 87.1708 70.2513 86.5847 69.6653C85.9987 69.0792 85.2038 68.75 84.375 68.75C83.5462 68.75 82.7513 69.0792 82.1653 69.6653C81.5792 70.2513 81.25 71.0462 81.25 71.875V77.1563C81.25 78.242 80.8187 79.2832 80.051 80.051C79.2832 80.8187 78.242 81.25 77.1563 81.25H10.3437C9.25802 81.25 8.21676 80.8187 7.44903 80.051C6.6813 79.2832 6.25 78.242 6.25 77.1563V25H81.25V59.375C81.25 60.2038 81.5792 60.9987 82.1653 61.5847C82.7513 62.1708 83.5462 62.5 84.375 62.5C85.2038 62.5 85.9987 62.1708 86.5847 61.5847C87.1708 60.9987 87.5 60.2038 87.5 59.375V10.3437C87.5 7.60042 86.4102 4.96944 84.4704 3.02961C82.5306 1.08978 79.8996 0 77.1563 0V0Z" fill="#A81C28"/>
<path d="M25 40.625C22.5136 40.625 20.129 41.6127 18.3709 43.3709C16.6127 45.129 15.625 47.5136 15.625 50C15.625 52.4864 16.6127 54.871 18.3709 56.6291C20.129 58.3873 22.5136 59.375 25 59.375H62.5C64.9864 59.375 67.371 58.3873 69.1291 56.6291C70.8873 54.871 71.875 52.4864 71.875 50C71.875 47.5136 70.8873 45.129 69.1291 43.3709C67.371 41.6127 64.9864 40.625 62.5 40.625H25ZM21.875 50C21.875 49.1712 22.2042 48.3763 22.7903 47.7903C23.3763 47.2042 24.1712 46.875 25 46.875H28.125V53.125H25C24.1712 53.125 23.3763 52.7958 22.7903 52.2097C22.2042 51.6237 21.875 50.8288 21.875 50ZM65.625 50C65.625 50.8288 65.2958 51.6237 64.7097 52.2097C64.1237 52.7958 63.3288 53.125 62.5 53.125H34.375V46.875H62.5C63.3288 46.875 64.1237 47.2042 64.7097 47.7903C65.2958 48.3763 65.625 49.1712 65.625 50Z" fill="#A81C28"/>
<path d="M75 12.5C75 11.6712 74.6708 10.8763 74.0847 10.2903C73.4987 9.70424 72.7038 9.375 71.875 9.375C71.2569 9.375 70.6527 9.55828 70.1388 9.90166C69.6249 10.245 69.2244 10.7331 68.9879 11.3041C68.7514 11.8751 68.6895 12.5035 68.81 13.1097C68.9306 13.7158 69.2283 14.2727 69.6653 14.7097C70.1023 15.1467 70.6592 15.4444 71.2653 15.565C71.8715 15.6855 72.4999 15.6236 73.0709 15.3871C73.6419 15.1506 74.13 14.7501 74.4733 14.2362C74.8167 13.7223 75 13.1181 75 12.5V12.5Z" fill="#A81C28"/>
<path d="M65.625 12.5C65.625 11.6712 65.2958 10.8763 64.7097 10.2903C64.1237 9.70424 63.3288 9.375 62.5 9.375C61.8819 9.375 61.2777 9.55828 60.7638 9.90166C60.2499 10.245 59.8494 10.7331 59.6129 11.3041C59.3764 11.8751 59.3145 12.5035 59.435 13.1097C59.5556 13.7158 59.8533 14.2727 60.2903 14.7097C60.7273 15.1467 61.2842 15.4444 61.8903 15.565C62.4965 15.6855 63.1249 15.6236 63.6959 15.3871C64.2669 15.1506 64.755 14.7501 65.0983 14.2362C65.4417 13.7223 65.625 13.1181 65.625 12.5V12.5Z" fill="#A81C28"/>
<path d="M56.25 12.5C56.25 11.6712 55.9208 10.8763 55.3347 10.2903C54.7487 9.70424 53.9538 9.375 53.125 9.375C52.5069 9.375 51.9027 9.55828 51.3888 9.90166C50.8749 10.245 50.4744 10.7331 50.2379 11.3041C50.0014 11.8751 49.9395 12.5035 50.06 13.1097C50.1806 13.7158 50.4783 14.2727 50.9153 14.7097C51.3523 15.1467 51.9092 15.4444 52.5153 15.565C53.1215 15.6855 53.7499 15.6236 54.3209 15.3871C54.8919 15.1506 55.38 14.7501 55.7233 14.2362C56.0667 13.7223 56.25 13.1181 56.25 12.5V12.5Z" fill="#A81C28"/>
</svg>
