<svg width="88" height="88" viewBox="0 0 88 88" fill="none" xmlns="http://www.w3.org/2000/svg">
<path d="M84.375 59.375H78.125V13.7812L83.4687 8.46875C84.0572 7.8803 84.3878 7.08219 84.3878 6.25C84.3878 5.41781 84.0572 4.6197 83.4687 4.03125C82.8803 3.4428 82.0822 3.11221 81.25 3.11221C80.4178 3.11221 79.6197 3.4428 79.0313 4.03125L73.7188 9.375H34.375C33.5462 9.375 32.7513 9.70424 32.1653 10.2903C31.5792 10.8763 31.25 11.6712 31.25 12.5C31.25 13.3288 31.5792 14.1237 32.1653 14.7097C32.7513 15.2958 33.5462 15.625 34.375 15.625H71.875V59.375H65.625V25C65.625 24.1712 65.2958 23.3763 64.7097 22.7903C64.1237 22.2042 63.3288 21.875 62.5 21.875H28.125V3.125C28.125 2.2962 27.7958 1.50134 27.2097 0.915291C26.6237 0.32924 25.8288 0 25 0H12.5C11.6712 0 10.8763 0.32924 10.2903 0.915291C9.70424 1.50134 9.375 2.2962 9.375 3.125V9.375H3.125C2.2962 9.375 1.50134 9.70424 0.915291 10.2903C0.32924 10.8763 0 11.6712 0 12.5V25C0 25.8288 0.32924 26.6237 0.915291 27.2097C1.50134 27.7958 2.2962 28.125 3.125 28.125H9.375V73.7188L4.03125 79.0313C3.73835 79.3218 3.50587 79.6674 3.34721 80.0482C3.18856 80.429 3.10688 80.8375 3.10688 81.25C3.10688 81.6625 3.18856 82.071 3.34721 82.4518C3.50587 82.8326 3.73835 83.1782 4.03125 83.4687C4.32176 83.7616 4.66739 83.9941 5.0482 84.1528C5.42901 84.3114 5.83746 84.3931 6.25 84.3931C6.66254 84.3931 7.07099 84.3114 7.4518 84.1528C7.83261 83.9941 8.17824 83.7616 8.46875 83.4687L13.7812 78.125H59.375V84.375C59.375 85.2038 59.7042 85.9987 60.2903 86.5847C60.8763 87.1708 61.6712 87.5 62.5 87.5H75C75.8288 87.5 76.6237 87.1708 77.2097 86.5847C77.7958 85.9987 78.125 85.2038 78.125 84.375V78.125H84.375C85.2038 78.125 85.9987 77.7958 86.5847 77.2097C87.1708 76.6237 87.5 75.8288 87.5 75V62.5C87.5 61.6712 87.1708 60.8763 86.5847 60.2903C85.9987 59.7042 85.2038 59.375 84.375 59.375ZM54.9688 28.125L28.125 54.9688V28.125H54.9688ZM6.25 21.875V15.625H9.375V21.875H6.25ZM71.875 81.25H65.625V78.125H71.875V81.25ZM81.25 71.875H15.625V6.25H21.875V62.5C21.8799 62.9084 21.9649 63.3118 22.125 63.6875C22.4421 64.4511 23.0489 65.0579 23.8125 65.375C24.1866 65.5403 24.591 65.6257 25 65.6257C25.409 65.6257 25.8134 65.5403 26.1875 65.375C26.5711 65.2263 26.9216 65.0032 27.2188 64.7187L59.375 32.5312V59.375H37.5C36.6712 59.375 35.8763 59.7042 35.2903 60.2903C34.7042 60.8763 34.375 61.6712 34.375 62.5C34.375 63.3288 34.7042 64.1237 35.2903 64.7097C35.8763 65.2958 36.6712 65.625 37.5 65.625H81.25V71.875Z" fill="#A81C28"/>
</svg>
