<svg width="82" height="88" viewBox="0 0 82 88" fill="none" xmlns="http://www.w3.org/2000/svg">
<path d="M73.7815 12.5132H62.5003C61.6715 12.5132 60.8766 12.8424 60.2906 13.4285C59.7045 14.0145 59.3753 14.8094 59.3753 15.6382C59.3753 16.467 59.7045 17.2618 60.2906 17.8479C60.8766 18.4339 61.6715 18.7632 62.5003 18.7632H73.7815C73.9498 18.7712 74.1149 18.8123 74.2673 18.8842C74.4197 18.9561 74.5564 19.0574 74.6697 19.1822C74.7829 19.307 74.8703 19.453 74.9271 19.6117C74.9838 19.7703 75.0087 19.9386 75.0003 20.1069V64.2944C75.0087 64.4627 74.9838 64.6311 74.9271 64.7897C74.8703 64.9484 74.7829 65.0943 74.6697 65.2192C74.5564 65.344 74.4197 65.4452 74.2673 65.5171C74.1149 65.589 73.9498 65.6302 73.7815 65.6382H56.2503V59.3882C56.2503 58.5594 55.921 57.7645 55.335 57.1785C54.7489 56.5924 53.9541 56.2632 53.1253 56.2632H33.6253L25.3128 27.0132L37.5003 11.9819V29.0132C36.3088 29.7011 35.3775 30.763 34.851 32.0341C34.3245 33.3052 34.2321 34.7145 34.5882 36.0435C34.9443 37.3724 35.729 38.5467 36.8205 39.3843C37.912 40.2219 39.2494 40.6758 40.6253 40.6758C42.0011 40.6758 43.3385 40.2219 44.43 39.3843C45.5215 38.5467 46.3062 37.3724 46.6623 36.0435C47.0184 34.7145 46.926 33.3052 46.3995 32.0341C45.873 30.763 44.9418 29.7011 43.7503 29.0132V11.9819L55.9378 27.0132L49.6878 49.1694C49.541 49.5735 49.4792 50.0035 49.5062 50.4326C49.5332 50.8617 49.6484 51.2805 49.8447 51.663C50.041 52.0455 50.3141 52.3834 50.6469 52.6555C50.9797 52.9276 51.3651 53.1282 51.7789 53.2446C52.1928 53.361 52.6262 53.3907 53.0521 53.332C53.478 53.2732 53.8871 53.1272 54.254 52.9031C54.6209 52.679 54.9376 52.3816 55.1843 52.0296C55.431 51.6775 55.6024 51.2783 55.6878 50.8569L62.5003 27.1382C62.6379 26.6585 62.6586 26.1529 62.5607 25.6636C62.4629 25.1743 62.2493 24.7155 61.9378 24.3257L43.1878 1.16944C42.8949 0.804458 42.5239 0.509894 42.102 0.307488C41.6801 0.105081 41.2182 0 40.7503 0C40.2823 0 39.8204 0.105081 39.3985 0.307488C38.9766 0.509894 38.6056 0.804458 38.3128 1.16944L19.5628 24.3257C19.2513 24.7155 19.0376 25.1743 18.9398 25.6636C18.8419 26.1529 18.8627 26.6585 19.0003 27.1382L27.2815 56.4507C26.6367 56.6313 26.067 57.0143 25.6563 57.5431C25.2456 58.072 25.0156 58.7188 25.0003 59.3882V65.6382H7.46901C7.30069 65.6302 7.1356 65.589 6.9832 65.5171C6.8308 65.4452 6.69408 65.344 6.58087 65.2192C6.46766 65.0943 6.38018 64.9484 6.32345 64.7897C6.26672 64.6311 6.24185 64.4627 6.25026 64.2944V19.8257C6.27427 19.5244 6.41526 19.2446 6.64304 19.046C6.87083 18.8474 7.16731 18.7459 7.46901 18.7632H18.7503C19.5791 18.7632 20.3739 18.4339 20.96 17.8479C21.546 17.2618 21.8753 16.467 21.8753 15.6382C21.8753 14.8094 21.546 14.0145 20.96 13.4285C20.3739 12.8424 19.5791 12.5132 18.7503 12.5132H7.46901C5.51009 12.4965 3.62434 13.2566 2.22456 14.6271C0.824778 15.9976 0.0249878 17.8669 0.000261501 19.8257V64.2944C-0.00798025 65.2835 0.178671 66.2644 0.549556 67.1813C0.920442 68.0982 1.4683 68.9331 2.16184 69.6382C2.85539 70.3434 3.68104 70.905 4.59164 71.2911C5.50225 71.6771 6.47998 71.88 7.46901 71.8882H37.5003V81.2632H21.8753C21.0465 81.2632 20.2516 81.5924 19.6656 82.1785C19.0795 82.7645 18.7503 83.5594 18.7503 84.3882C18.7503 85.217 19.0795 86.0119 19.6656 86.5979C20.2516 87.184 21.0465 87.5132 21.8753 87.5132H59.3753C60.2041 87.5132 60.9989 87.184 61.585 86.5979C62.171 86.0119 62.5003 85.217 62.5003 84.3882C62.5003 83.5594 62.171 82.7645 61.585 82.1785C60.9989 81.5924 60.2041 81.2632 59.3753 81.2632H43.7503V71.8882H73.7815C74.7705 71.88 75.7483 71.6771 76.6589 71.2911C77.5695 70.905 78.3951 70.3434 79.0887 69.6382C79.7822 68.9331 80.3301 68.0982 80.701 67.1813C81.0719 66.2644 81.2585 65.2835 81.2503 64.2944V20.1069C81.2585 19.1179 81.0719 18.1369 80.701 17.2201C80.3301 16.3032 79.7822 15.4683 79.0887 14.7632C78.3951 14.058 77.5695 13.4964 76.6589 13.1103C75.7483 12.7243 74.7705 12.5214 73.7815 12.5132V12.5132ZM31.2503 65.6382V62.5132H50.0003V65.6382H31.2503Z" fill="#A81C28"/>
</svg>
