<svg width="88" height="88" viewBox="0 0 88 88" fill="none" xmlns="http://www.w3.org/2000/svg">
<path d="M80.3125 0H28.125C27.2962 0 26.5013 0.32924 25.9153 0.915291C25.3292 1.50134 25 2.2962 25 3.125C25 3.9538 25.3292 4.74866 25.9153 5.33471C26.5013 5.92076 27.2962 6.25 28.125 6.25H65.625V12.5H6.25V7.1875C6.25782 6.94134 6.3591 6.7074 6.53325 6.53325C6.7074 6.3591 6.94134 6.25782 7.1875 6.25H15.625C16.4538 6.25 17.2487 5.92076 17.8347 5.33471C18.4208 4.74866 18.75 3.9538 18.75 3.125C18.75 2.2962 18.4208 1.50134 17.8347 0.915291C17.2487 0.32924 16.4538 0 15.625 0H7.1875C5.28126 0 3.45309 0.757252 2.10517 2.10517C0.757252 3.45309 0 5.28126 0 7.1875V61.5625C0 63.4687 0.757252 65.2969 2.10517 66.6448C3.45309 67.9927 5.28126 68.75 7.1875 68.75H31.25C32.0788 68.75 32.8737 68.4208 33.4597 67.8347C34.0458 67.2487 34.375 66.4538 34.375 65.625V50H53.125V81.25H34.375V75C34.375 74.1712 34.0458 73.3763 33.4597 72.7903C32.8737 72.2042 32.0788 71.875 31.25 71.875C30.4212 71.875 29.6263 72.2042 29.0403 72.7903C28.4542 73.3763 28.125 74.1712 28.125 75V84.375C28.125 85.2038 28.4542 85.9987 29.0403 86.5847C29.6263 87.1708 30.4212 87.5 31.25 87.5H56.25C57.0788 87.5 57.8737 87.1708 58.4597 86.5847C59.0458 85.9987 59.375 85.2038 59.375 84.375V46.875C59.375 46.875 59.375 46.875 59.375 46.6875C59.3896 46.4899 59.3896 46.2914 59.375 46.0938C59.3313 45.8904 59.2685 45.6916 59.1875 45.5C59.1875 45.5 59.1875 45.5 59.1875 45.3125L46.6875 23.4375C46.4149 22.9566 46.0197 22.5565 45.5421 22.2782C45.0644 21.9999 44.5215 21.8533 43.9687 21.8533C43.416 21.8533 42.8731 21.9999 42.3954 22.2782C41.9178 22.5565 41.5226 22.9566 41.25 23.4375L28.75 45.3125C28.75 45.3125 28.75 45.3125 28.75 45.5C28.669 45.6916 28.6062 45.8904 28.5625 46.0938C28.5479 46.2914 28.5479 46.4899 28.5625 46.6875C28.5625 46.6875 28.5625 46.6875 28.5625 46.875V62.5H7.1875C6.94134 62.4922 6.7074 62.3909 6.53325 62.2167C6.3591 62.0426 6.25782 61.8087 6.25 61.5625V18.75H81.25V61.5625C81.2422 61.8087 81.1409 62.0426 80.9667 62.2167C80.7926 62.3909 80.5587 62.4922 80.3125 62.5H65.625C64.7962 62.5 64.0013 62.8292 63.4153 63.4153C62.8292 64.0013 62.5 64.7962 62.5 65.625C62.5 66.4538 62.8292 67.2487 63.4153 67.8347C64.0013 68.4208 64.7962 68.75 65.625 68.75H80.3125C82.2187 68.75 84.0469 67.9927 85.3948 66.6448C86.7427 65.2969 87.5 63.4687 87.5 61.5625V7.1875C87.5 5.28126 86.7427 3.45309 85.3948 2.10517C84.0469 0.757252 82.2187 0 80.3125 0ZM43.75 31.25L50.875 43.75H36.625L43.75 31.25ZM71.875 12.5V6.25H80.3125C80.5587 6.25782 80.7926 6.3591 80.9667 6.53325C81.1409 6.7074 81.2422 6.94134 81.25 7.1875V12.5H71.875Z" fill="#A81C28"/>
</svg>
