<svg width="82" height="88" viewBox="0 0 82 88" fill="none" xmlns="http://www.w3.org/2000/svg">
<path d="M79.5855 31.2602L73.8042 23.8539C73.6534 23.6625 73.5494 23.4385 73.5005 23.1998C73.4517 22.961 73.4594 22.7142 73.523 22.4789L76.1792 13.6039C76.5846 12.2204 76.5977 10.7514 76.217 9.36088C75.8362 7.97035 75.0766 6.71294 74.023 5.72891C72.9963 4.7549 71.7198 4.08449 70.3352 3.79212C68.9506 3.49975 67.512 3.59686 66.1792 4.07266L57.5855 7.19767C57.3773 7.26866 57.1552 7.28869 56.9376 7.25606C56.7201 7.22344 56.5136 7.13911 56.3355 7.01016L48.7417 1.47891C47.5903 0.626199 46.2194 0.119646 44.7902 0.0187125C43.3609 -0.0822204 41.9325 0.226656 40.6727 0.909086C39.4128 1.59152 38.3737 2.61918 37.6774 3.87145C36.9812 5.12372 36.6566 6.54863 36.7417 7.97892L37.1792 17.3539C37.1995 17.5731 37.1644 17.7939 37.077 17.9959C36.9896 18.198 36.8528 18.3748 36.6792 18.5102L29.3355 23.9164C28.2294 24.7608 27.3744 25.8907 26.8623 27.1846C26.3503 28.4785 26.2005 29.8875 26.4292 31.2602C26.6585 32.7069 27.2899 34.0601 28.2513 35.1652C29.2128 36.2704 30.4656 37.0829 31.8667 37.5102L34.398 38.2602L13.273 61.8227C12.7218 62.4443 12.4402 63.2594 12.49 64.0886C12.5398 64.9179 12.917 65.6934 13.5386 66.2445C14.1602 66.7957 14.9753 67.0773 15.8046 67.0275C16.6338 66.9777 17.4093 66.6005 17.9605 65.9789L46.0855 34.4164L48.3667 36.5102L8.86672 80.7602C8.60066 81.054 8.23099 81.2333 7.83547 81.2602C7.63944 81.2743 7.4427 81.2452 7.25912 81.175C7.07554 81.1048 6.90959 80.9952 6.77297 80.8539C6.47528 80.5552 6.30812 80.1506 6.30812 79.7289C6.30812 79.3072 6.47528 78.9026 6.77297 78.6039L10.9292 73.9789C11.2042 73.6711 11.4158 73.3122 11.5521 72.9226C11.6883 72.533 11.7465 72.1204 11.7233 71.7084C11.7 71.2963 11.5959 70.8929 11.4168 70.5211C11.2376 70.1493 10.987 69.8164 10.6792 69.5414C10.3714 69.2665 10.0125 69.0548 9.62293 68.9186C9.23336 68.7823 8.82076 68.7242 8.4087 68.7474C7.99664 68.7706 7.59319 68.8747 7.22138 69.0539C6.84957 69.233 6.51668 69.4836 6.24172 69.7914L1.99172 74.4164C0.621275 75.966 -0.0900823 77.9894 0.00914523 80.0556C0.108373 82.1219 1.01034 84.0678 2.52297 85.4789C3.94694 86.7854 5.8092 87.5103 7.74172 87.5102H8.11672C9.14427 87.4552 10.1508 87.1977 11.0786 86.7526C12.0064 86.3075 12.8371 85.6835 13.523 84.9164L44.8042 50.0102C45.2578 51.3721 46.0836 52.5799 47.1882 53.4967C48.2928 54.4135 49.632 55.0028 51.0542 55.1977C51.3764 55.2277 51.7008 55.2277 52.023 55.1977C53.2625 55.1954 54.4822 54.8859 55.5728 54.297C56.6635 53.708 57.5912 52.8579 58.273 51.8227L63.3042 44.1352C63.4148 43.9621 63.5673 43.8198 63.7476 43.7215C63.9279 43.6231 64.1301 43.5719 64.3355 43.5727H73.5542C74.9601 43.584 76.3404 43.1967 77.5351 42.4555C78.7298 41.7144 79.6899 40.6498 80.3042 39.3852C80.9551 38.0989 81.2328 36.656 81.1057 35.22C80.9787 33.784 80.4521 32.4122 79.5855 31.2602ZM50.398 29.7602L53.6792 26.0727C53.8064 25.9216 53.9639 25.799 54.1416 25.7128C54.3193 25.6267 54.5131 25.5789 54.7105 25.5727C54.9063 25.5607 55.1024 25.5907 55.2857 25.6608C55.469 25.7308 55.6351 25.8393 55.773 25.9789C56.0633 26.2815 56.2254 26.6846 56.2254 27.1039C56.2254 27.5232 56.0633 27.9263 55.773 28.2289L52.648 31.8539L50.398 29.7602ZM74.9917 36.6977C74.8931 36.9106 74.7336 37.0895 74.5334 37.2119C74.3332 37.3342 74.1012 37.3945 73.8667 37.3852H64.4917C63.2517 37.3846 62.031 37.6929 60.9398 38.2821C59.8487 38.8713 58.9214 39.723 58.2417 40.7602L53.1167 48.4477C52.9909 48.6504 52.8084 48.8118 52.5918 48.9118C52.3751 49.0118 52.1339 49.046 51.898 49.0102C51.6183 48.9704 51.3556 48.8526 51.14 48.6702C50.9244 48.4877 50.7647 48.2481 50.6792 47.9789L49.523 44.6352L60.4917 32.4164C61.5348 31.2634 62.2116 29.8263 62.4363 28.2878C62.6609 26.7493 62.4233 25.1788 61.7535 23.7756C61.0838 22.3724 60.0121 21.2 58.6746 20.4071C57.3371 19.6143 55.7942 19.2368 54.2417 19.3227C52.2355 19.4672 50.3641 20.3861 49.023 21.8852L38.898 33.1664C38.7313 33.0542 38.5532 32.9599 38.3667 32.8852L33.6792 31.4789C33.3996 31.3912 33.1496 31.2282 32.9566 31.0077C32.7637 30.7871 32.6353 30.5177 32.5855 30.2289C32.5406 29.9807 32.5634 29.725 32.6514 29.4885C32.7393 29.2521 32.8893 29.0437 33.0855 28.8852L40.398 23.4477C41.4164 22.715 42.2357 21.7396 42.7815 20.6099C43.3272 19.4802 43.5821 18.2321 43.523 16.9789L43.0542 7.60391C43.032 7.35088 43.0855 7.09695 43.2079 6.87438C43.3303 6.65181 43.5161 6.47065 43.7417 6.35392C43.958 6.2213 44.2068 6.1511 44.4605 6.1511C44.7142 6.1511 44.9629 6.2213 45.1792 6.35392L52.7417 11.8539C53.7482 12.5837 54.9179 13.0564 56.1488 13.2307C57.3798 13.405 58.6347 13.2756 59.8042 12.8539L68.398 9.72892C68.6444 9.63522 68.9133 9.6179 69.1697 9.67921C69.4261 9.74052 69.6581 9.87763 69.8355 10.0727C70.0538 10.2613 70.2118 10.5101 70.2896 10.788C70.3674 11.0659 70.3616 11.3605 70.273 11.6352L67.648 20.4789C67.2286 21.6803 67.1091 22.9658 67.2997 24.2239C67.4903 25.482 67.9853 26.6745 68.7417 27.6977L74.523 35.1039C74.7528 35.2912 74.9207 35.5437 75.0043 35.8282C75.088 36.1126 75.0836 36.4157 74.9917 36.6977V36.6977Z" fill="#A81C28"/>
</svg>
