<svg width="88" height="79" viewBox="0 0 88 79" fill="none" xmlns="http://www.w3.org/2000/svg">
<path d="M79.6562 0H7.78125C5.71436 0.0245919 3.74 0.860844 2.28425 2.32829C0.828487 3.79575 0.00805624 5.77673 0 7.84375V12.5C0 13.3288 0.32924 14.1237 0.915291 14.7097C1.50134 15.2958 2.2962 15.625 3.125 15.625C3.9538 15.625 4.74866 15.2958 5.33471 14.7097C5.92076 14.1237 6.25 13.3288 6.25 12.5V7.84375C6.25 7.42106 6.41791 7.01568 6.7168 6.7168C7.01568 6.41791 7.42106 6.25 7.84375 6.25H79.7188C80.1414 6.25 80.5468 6.41791 80.8457 6.7168C81.1446 7.01568 81.3125 7.42106 81.3125 7.84375V54.7188C81.3125 55.1414 81.1446 55.5468 80.8457 55.8457C80.5468 56.1446 80.1414 56.3125 79.7188 56.3125H7.84375C7.62909 56.3127 7.41661 56.2695 7.21906 56.1855C7.02151 56.1015 6.84295 55.9785 6.69411 55.8238C6.54527 55.6691 6.42921 55.486 6.3529 55.2854C6.27658 55.0847 6.24158 54.8707 6.25 54.6562V50H71.875C72.7038 50 73.4987 49.6708 74.0847 49.0847C74.6708 48.4987 75 47.7038 75 46.875C75 46.0462 74.6708 45.2513 74.0847 44.6653C73.4987 44.0792 72.7038 43.75 71.875 43.75H6.25V25C6.25 24.1712 5.92076 23.3763 5.33471 22.7903C4.74866 22.2042 3.9538 21.875 3.125 21.875C2.2962 21.875 1.50134 22.2042 0.915291 22.7903C0.32924 23.3763 0 24.1712 0 25V54.6562C0.00822884 56.734 0.837264 58.7243 2.30647 60.1935C3.77568 61.6627 5.76599 62.4918 7.84375 62.5H30.5625L28.6875 71.875H25C24.1712 71.875 23.3763 72.2042 22.7903 72.7903C22.2042 73.3763 21.875 74.1712 21.875 75C21.875 75.8288 22.2042 76.6237 22.7903 77.2097C23.3763 77.7958 24.1712 78.125 25 78.125H62.5C63.3288 78.125 64.1237 77.7958 64.7097 77.2097C65.2958 76.6237 65.625 75.8288 65.625 75C65.625 74.1712 65.2958 73.3763 64.7097 72.7903C64.1237 72.2042 63.3288 71.875 62.5 71.875H58.8125L56.9375 62.5H79.6562C81.734 62.4918 83.7243 61.6627 85.1935 60.1935C86.6627 58.7243 87.4918 56.734 87.5 54.6562V7.78125C87.4754 5.71436 86.6392 3.74 85.1717 2.28425C83.7043 0.828487 81.7233 0.00805624 79.6562 0V0ZM52.4375 71.875H35.0625L36.9375 62.5H50.5625L52.4375 71.875Z" fill="#A81C28"/>
</svg>
